<?xml version="1.0" encoding="utf-8"?>
<!-- Generator: Adobe Illustrator 22.0.1, SVG Export Plug-In . SVG Version: 6.00 Build 0)  -->
<svg version="1.1" id="Calque_1" xmlns="http://www.w3.org/2000/svg" xmlns:xlink="http://www.w3.org/1999/xlink" x="0px" y="0px"
	 viewBox="0 0 25 25" style="enable-background:new 0 0 25 25;" xml:space="preserve">
<style type="text/css">
	.st0{fill-rule:evenodd;clip-rule:evenodd;fill:#FFFFFF;}
	.st1{fill:#FFFFFF;}
</style>
<title>icone-facebook</title>
<g>
	<path class="st0" d="M12.5,0.3C5.6,0.3,0,5.9,0,12.8C0,18.3,3.6,23,8.5,24.7c0.6,0.1,0.9-0.3,0.9-0.6c0-0.3,0-1.3,0-2.3
		c-3.5,0.8-4.2-1.5-4.2-1.5c-0.6-1.4-1.4-1.8-1.4-1.8c-1.1-0.8,0.1-0.8,0.1-0.8C5.1,17.8,5.8,19,5.8,19c1.1,1.9,2.9,1.4,3.6,1
		c0.1-0.8,0.4-1.4,0.8-1.7c-2.8-0.3-5.7-1.4-5.7-6.2c0-1.4,0.5-2.5,1.3-3.4C5.7,8.5,5.3,7.2,5.9,5.5c0,0,1-0.3,3.4,1.3
		c1-0.3,2.1-0.4,3.1-0.4c1.1,0,2.1,0.1,3.1,0.4c2.4-1.6,3.4-1.3,3.4-1.3c0.7,1.7,0.3,3,0.1,3.3c0.8,0.9,1.3,2,1.3,3.4
		c0,4.8-2.9,5.9-5.7,6.2c0.4,0.4,0.8,1.1,0.8,2.3c0,1.7,0,3,0,3.4c0,0.3,0.2,0.7,0.9,0.6c5-1.7,8.5-6.3,8.5-11.9
		C25,5.9,19.4,0.3,12.5,0.3z"/>
	<path class="st1" d="M4.7,18.3c0,0.1-0.1,0.1-0.2,0c-0.1,0-0.1-0.1-0.1-0.2c0-0.1,0.1-0.1,0.2,0C4.7,18.1,4.8,18.2,4.7,18.3
		L4.7,18.3z M4.6,18.1"/>
	<path class="st1" d="M5.2,18.8c-0.1,0.1-0.2,0-0.3-0.1c-0.1-0.1-0.1-0.2,0-0.3c0.1-0.1,0.2,0,0.3,0.1C5.3,18.6,5.3,18.8,5.2,18.8
		L5.2,18.8z M5.1,18.7"/>
	<path class="st1" d="M5.7,19.5c-0.1,0.1-0.2,0-0.3-0.1c-0.1-0.1-0.1-0.2,0-0.3c0.1-0.1,0.2,0,0.3,0.1C5.8,19.4,5.8,19.5,5.7,19.5
		L5.7,19.5z M5.7,19.5"/>
	<path class="st1" d="M6.4,20.2c-0.1,0.1-0.2,0.1-0.3,0C6,20.1,5.9,19.9,6,19.9c0.1-0.1,0.2-0.1,0.3,0C6.4,20,6.5,20.2,6.4,20.2
		L6.4,20.2z M6.4,20.2"/>
	<path class="st1" d="M7.3,20.6c0,0.1-0.2,0.1-0.3,0.1c-0.1,0-0.2-0.2-0.2-0.3c0-0.1,0.2-0.1,0.3-0.1C7.3,20.4,7.4,20.5,7.3,20.6
		L7.3,20.6z M7.3,20.6"/>
	<path class="st1" d="M8.4,20.7c0,0.1-0.1,0.2-0.3,0.2c-0.1,0-0.3-0.1-0.3-0.2c0-0.1,0.1-0.2,0.3-0.2C8.2,20.5,8.4,20.6,8.4,20.7
		L8.4,20.7z M8.4,20.7"/>
	<path class="st1" d="M9.3,20.6c0,0.1-0.1,0.2-0.2,0.2c-0.1,0-0.3,0-0.3-0.1c0-0.1,0.1-0.2,0.2-0.2C9.2,20.4,9.3,20.5,9.3,20.6
		L9.3,20.6z M9.3,20.6"/>
</g>
</svg>
