<svg xmlns="http://www.w3.org/2000/svg" viewBox="0 0 25 25"><defs><style>.cls-1{fill:#b0bec5;}</style></defs><title>icone-facebook</title><g id="Calque_2" data-name="Calque 2"><g id="Content"><path class="cls-1" d="M21.63,0H3.37A3.37,3.37,0,0,0,0,3.37V21.63A3.37,3.37,0,0,0,3.37,25h9l0-8.93H10.07a.55.55,0,0,1-.55-.55V12.64a.55.55,0,0,1,.55-.55h2.32V9.31c0-3.23,2-5,4.85-5h2.36a.55.55,0,0,1,.55.55V7.3a.55.55,0,0,1-.55.55H18.14c-1.57,0-1.87.74-1.87,1.84v2.41h3.44a.55.55,0,0,1,.54.61l-.34,2.88a.55.55,0,0,1-.54.48H16.29l0,8.93h5.36A3.37,3.37,0,0,0,25,21.63V3.37A3.37,3.37,0,0,0,21.63,0Z"/></g></g></svg>