<svg xmlns="http://www.w3.org/2000/svg" viewBox="0 0 25 25"><defs><style>.cls-1{fill:#b0bec5;}</style></defs><title>icone-twitter</title><g id="Calque_2" data-name="Calque 2"><g id="Content"><path class="cls-1" d="M20.83,0H4.17A4.18,4.18,0,0,0,0,4.17V20.83A4.18,4.18,0,0,0,4.17,25H20.83A4.18,4.18,0,0,0,25,20.83V4.17A4.18,4.18,0,0,0,20.83,0Zm-.37,8.35q0,.27,0,.54c0,5.52-4.13,11.89-11.69,11.89a11.48,11.48,0,0,1-6.3-1.88,8.17,8.17,0,0,0,6.08-1.73,4.12,4.12,0,0,1-3.84-2.9,4,4,0,0,0,1.85-.07,4.16,4.16,0,0,1-3.29-4.1V10a4,4,0,0,0,1.86.52A4.23,4.23,0,0,1,3.88,5a11.59,11.59,0,0,0,8.47,4.37,4.26,4.26,0,0,1-.11-1,4.14,4.14,0,0,1,4.11-4.18,4.07,4.07,0,0,1,3,1.32,8.14,8.14,0,0,0,2.61-1,4.18,4.18,0,0,1-1.81,2.31,8.1,8.1,0,0,0,2.36-.66,8.43,8.43,0,0,1-2,2.16Zm0,0"/></g></g></svg>