<svg xmlns="http://www.w3.org/2000/svg" viewBox="0 0 119.89 56.79"><defs><style>.cls-1{fill:none;stroke:#fff;stroke-miterlimit:10;stroke-width:1.5px;}.cls-2{fill:#fff;}</style></defs><title>pen</title><g id="Calque_2" data-name="Calque 2"><g id="Content"><g id="Illustration"><path class="cls-1" d="M45.1,5.38l64.1.2a10.46,10.46,0,0,1,4.37,3.52c2.09,2.93,5.6,8.95,5.56,21.32h0c0,12.37-3.59,18.36-5.69,21.28A10.48,10.48,0,0,1,109,55.2L44.93,55"/><path class="cls-1" d="M31.4,25.72c-.06,1.37-.09,2.84-.09,4.43h0c0,14.21,2.17,19.15,4.31,22.56C37.53,55.79,39,56,39,56h4.07s2.23-.39,4.08-3.74c2.41-4.37,5.36-13.74,5.38-22.08h0c0-8.34-2.86-17.73-5.25-22.11-1.83-3.36-4.05-3.76-4.05-3.76H39.17s-1.46.22-3.41,3.29a21.93,21.93,0,0,0-1.57,2.89"/><path class="cls-1" d="M37.13,5.78c2.72-2,5.08,1,5.08,1,2.86,2.58,6.33,12.53,6.3,23.44s-3.83,20.32-6.46,23.4c0,0-2.38,2.94-5.09,1"/><path class="cls-2" d="M46.39,14.7,14.08.73A4.1,4.1,0,0,0,9.35,1.83L5.38.11a1.35,1.35,0,0,0-1.77.7L.11,8.92a1.34,1.34,0,0,0,.7,1.77l4,1.71a4.1,4.1,0,0,0,2.44,4.19l11.39,4.92,29.7,12.83.18-2.85L20.92,19.58,24,12.37a1.35,1.35,0,1,0-2.47-1.07l-3.12,7.21L8.29,14.12a1.4,1.4,0,0,1-.73-1.84l.05-.12,3.56-8.23A1.4,1.4,0,0,1,13,3.21L24.4,8.13l22.72,9.82ZM8.12,4.22,5.68,9.86,3.12,8.75,5.55,3.11Z"/></g></g></g></svg>