<svg xmlns="http://www.w3.org/2000/svg" viewBox="0 0 154.87 87.78"><defs><style>.cls-1{fill:none;stroke:#fff;stroke-linejoin:round;stroke-width:2px;}.cls-2{fill:#fff;}</style></defs><title>phone</title><g id="Calque_2" data-name="Calque 2"><g id="Content"><g id="Illustration"><path class="cls-1" d="M153.65,37.25s-.14-25.6-.16-29.2S149.35,1,146.37,1L7.92,1.75C5.68,1.76,1,5.27,1,9s.18,32.56.18,32.56l0,5.5s.16,28.83.18,32.56,4.76,7.18,7,7.17L146.82,86c3,0,7.07-3.52,7-7.12l-.16-29.2Z"/><polygon class="cls-1" points="136.89 40.82 136.7 5.53 18.14 6.17 18.33 41.47 18.35 46.46 18.55 81.76 137.11 81.11 136.91 45.82 136.89 40.82"/><circle class="cls-1" cx="145.35" cy="43.52" r="4.47" transform="translate(-0.23 0.78) rotate(-0.31)"/><path class="cls-2" d="M10.5,34.06a1.74,1.74,0,0,1,1.75,1.73l0,9.19a1.74,1.74,0,0,1-1.73,1.75h0A1.74,1.74,0,0,1,8.82,45l-.05-9.19a1.74,1.74,0,0,1,1.73-1.75Z"/><circle class="cls-2" cx="10.59" cy="51.62" r="1.74" transform="translate(-0.28 0.06) rotate(-0.31)"/></g></g></g></svg>